<mxfile host="65bd71144e">
    <diagram id="DSDsXnFP1v6kwenmJiHx" name="Page-1">
        <mxGraphModel dx="295" dy="293" grid="1" gridSize="10" guides="1" tooltips="1" connect="1" arrows="1" fold="1" page="0" pageScale="1" pageWidth="827" pageHeight="1169" background="none" math="0" shadow="1">
            <root>
                <mxCell id="0"/>
                <mxCell id="1" parent="0"/>
                <mxCell id="25" value="" style="edgeStyle=none;html=1;strokeWidth=2;shadow=1;textShadow=1;" parent="1" source="2" target="24" edge="1">
                    <mxGeometry relative="1" as="geometry"/>
                </mxCell>
                <mxCell id="2" value="main" style="strokeWidth=2;html=1;shape=mxgraph.flowchart.terminator;whiteSpace=wrap;fillColor=#d80073;strokeColor=#A50040;shadow=1;fontColor=#ffffff;textShadow=1;" parent="1" vertex="1">
                    <mxGeometry x="270" y="40" width="100" height="60" as="geometry"/>
                </mxCell>
                <mxCell id="24" value="menu()" style="shape=process;whiteSpace=wrap;html=1;backgroundOutline=1;strokeWidth=2;shadow=1;fillColor=#0050ef;strokeColor=#001DBC;fontColor=#ffffff;textShadow=1;" parent="1" vertex="1">
                    <mxGeometry x="230" y="150" width="180" height="60" as="geometry"/>
                </mxCell>
                <mxCell id="107" value="" style="edgeStyle=none;html=1;strokeWidth=2;rounded=0;curved=0;shadow=1;exitX=0;exitY=0.5;exitDx=0;exitDy=0;exitPerimeter=0;textShadow=1;" parent="1" source="109" edge="1">
                    <mxGeometry relative="1" as="geometry">
                        <mxPoint x="230" y="1800" as="sourcePoint"/>
                        <mxPoint x="320" y="230" as="targetPoint"/>
                        <Array as="points">
                            <mxPoint x="150" y="3005"/>
                            <mxPoint x="150" y="230"/>
                        </Array>
                    </mxGeometry>
                </mxCell>
                <mxCell id="109" value="std::toupper(continueChoice)&lt;br&gt;== &#39;Y&#39;" style="rhombus;whiteSpace=wrap;html=1;fillColor=#6a00ff;strokeColor=#3700CC;strokeWidth=2;shadow=1;fontColor=#ffffff;textShadow=1;" parent="1" vertex="1">
                    <mxGeometry x="225" y="2910" width="190" height="190" as="geometry"/>
                </mxCell>
                <mxCell id="118" value="" style="edgeStyle=none;html=1;strokeWidth=2;shadow=1;entryX=0.5;entryY=0;entryDx=0;entryDy=0;textShadow=1;" parent="1" target="119" edge="1">
                    <mxGeometry relative="1" as="geometry">
                        <mxPoint x="319.66" y="210" as="sourcePoint"/>
                        <mxPoint x="319.66" y="260" as="targetPoint"/>
                    </mxGeometry>
                </mxCell>
                <mxCell id="119" value="bookingType = getBookingType()" style="whiteSpace=wrap;html=1;fillColor=#fa6800;fontColor=#FFFFFF;strokeColor=#C73500;strokeWidth=2;textShadow=1;" parent="1" vertex="1">
                    <mxGeometry x="230" y="260" width="180" height="60" as="geometry"/>
                </mxCell>
                <mxCell id="120" value="" style="edgeStyle=none;html=1;strokeWidth=2;shadow=1;entryX=0.5;entryY=0;entryDx=0;entryDy=0;textShadow=1;" parent="1" edge="1">
                    <mxGeometry relative="1" as="geometry">
                        <mxPoint x="319.76000000000005" y="320" as="sourcePoint"/>
                        <mxPoint x="320.1" y="370" as="targetPoint"/>
                    </mxGeometry>
                </mxCell>
                <mxCell id="121" value="driverCount =&lt;br&gt;getDriverCount(bookingType)" style="whiteSpace=wrap;html=1;fillColor=#fa6800;fontColor=#FFFFFF;strokeColor=#C73500;strokeWidth=2;textShadow=1;" parent="1" vertex="1">
                    <mxGeometry x="230" y="370" width="180" height="60" as="geometry"/>
                </mxCell>
                <mxCell id="122" value="" style="edgeStyle=none;html=1;strokeWidth=2;shadow=1;entryX=0.5;entryY=0;entryDx=0;entryDy=0;textShadow=1;" parent="1" edge="1">
                    <mxGeometry relative="1" as="geometry">
                        <mxPoint x="319.71000000000004" y="430" as="sourcePoint"/>
                        <mxPoint x="320.05" y="480" as="targetPoint"/>
                    </mxGeometry>
                </mxCell>
                <mxCell id="124" value="getDriverDetails (driverCount, driverName, driverAge, license)" style="shape=process;whiteSpace=wrap;html=1;backgroundOutline=1;strokeWidth=2;shadow=1;fillColor=#0050ef;strokeColor=#001DBC;fontColor=#ffffff;textShadow=1;" parent="1" vertex="1">
                    <mxGeometry x="230" y="480" width="180" height="60" as="geometry"/>
                </mxCell>
                <mxCell id="125" value="" style="edgeStyle=none;html=1;strokeWidth=2;shadow=1;entryX=0.5;entryY=0;entryDx=0;entryDy=0;textShadow=1;" parent="1" edge="1">
                    <mxGeometry relative="1" as="geometry">
                        <mxPoint x="319.71000000000004" y="540" as="sourcePoint"/>
                        <mxPoint x="320.05" y="590" as="targetPoint"/>
                    </mxGeometry>
                </mxCell>
                <mxCell id="126" value="raceFormat =&lt;br&gt;setRaceFormat(bookingType)" style="whiteSpace=wrap;html=1;fillColor=#fa6800;fontColor=#FFFFFF;strokeColor=#C73500;strokeWidth=2;textShadow=1;" parent="1" vertex="1">
                    <mxGeometry x="230" y="590" width="180" height="60" as="geometry"/>
                </mxCell>
                <mxCell id="127" value="" style="edgeStyle=none;html=1;strokeWidth=2;shadow=1;entryX=0.5;entryY=0;entryDx=0;entryDy=0;textShadow=1;" parent="1" edge="1">
                    <mxGeometry relative="1" as="geometry">
                        <mxPoint x="319.66" y="650" as="sourcePoint"/>
                        <mxPoint x="320" y="700" as="targetPoint"/>
                    </mxGeometry>
                </mxCell>
                <mxCell id="129" value="track = setTrack(bookingType, raceFormat)" style="whiteSpace=wrap;html=1;fillColor=#fa6800;fontColor=#FFFFFF;strokeColor=#C73500;strokeWidth=2;textShadow=1;" parent="1" vertex="1">
                    <mxGeometry x="230" y="700" width="180" height="60" as="geometry"/>
                </mxCell>
                <mxCell id="131" value="" style="edgeStyle=none;html=1;strokeWidth=2;shadow=1;entryX=0.5;entryY=0;entryDx=0;entryDy=0;textShadow=1;" parent="1" edge="1">
                    <mxGeometry relative="1" as="geometry">
                        <mxPoint x="319.64000000000004" y="760" as="sourcePoint"/>
                        <mxPoint x="319.98" y="810" as="targetPoint"/>
                    </mxGeometry>
                </mxCell>
                <mxCell id="132" value="setEngineCapacity&lt;br&gt;(driverCount, driverName, driverAge, license)" style="shape=process;whiteSpace=wrap;html=1;backgroundOutline=1;strokeWidth=2;shadow=1;fillColor=#0050ef;strokeColor=#001DBC;fontColor=#ffffff;textShadow=1;" parent="1" vertex="1">
                    <mxGeometry x="230" y="810" width="180" height="60" as="geometry"/>
                </mxCell>
                <mxCell id="133" value="" style="edgeStyle=none;html=1;strokeWidth=2;shadow=1;entryX=0.5;entryY=0;entryDx=0;entryDy=0;textShadow=1;" parent="1" edge="1">
                    <mxGeometry relative="1" as="geometry">
                        <mxPoint x="319.66" y="870" as="sourcePoint"/>
                        <mxPoint x="320" y="920" as="targetPoint"/>
                    </mxGeometry>
                </mxCell>
                <mxCell id="134" value="laps = setLaps(driverCount, raceFormat)" style="whiteSpace=wrap;html=1;fillColor=#fa6800;fontColor=#FFFFFF;strokeColor=#C73500;strokeWidth=2;textShadow=1;" parent="1" vertex="1">
                    <mxGeometry x="230" y="920" width="180" height="60" as="geometry"/>
                </mxCell>
                <mxCell id="135" value="" style="edgeStyle=none;html=1;strokeWidth=2;shadow=1;entryX=0.5;entryY=0;entryDx=0;entryDy=0;textShadow=1;" parent="1" edge="1">
                    <mxGeometry relative="1" as="geometry">
                        <mxPoint x="319.66" y="980" as="sourcePoint"/>
                        <mxPoint x="320" y="1030" as="targetPoint"/>
                    </mxGeometry>
                </mxCell>
                <mxCell id="136" value="i =0,&lt;br&gt;i &amp;lt; driverCount,&lt;br&gt;i++" style="rhombus;whiteSpace=wrap;html=1;fillColor=#6a00ff;fontColor=#ffffff;strokeColor=#3700CC;textShadow=1;" vertex="1" parent="1">
                    <mxGeometry x="265" y="1030" width="110" height="110" as="geometry"/>
                </mxCell>
                <mxCell id="138" value="driverGear(i, driverName)" style="shape=process;whiteSpace=wrap;html=1;backgroundOutline=1;strokeWidth=2;shadow=1;fillColor=#0050ef;strokeColor=#001DBC;fontColor=#ffffff;textShadow=1;" vertex="1" parent="1">
                    <mxGeometry x="430" y="1055" width="180" height="60" as="geometry"/>
                </mxCell>
                <mxCell id="143" value="selectSuit(i, suitSize, suitPrice)" style="shape=process;whiteSpace=wrap;html=1;backgroundOutline=1;strokeWidth=2;shadow=1;fillColor=#0050ef;strokeColor=#001DBC;fontColor=#ffffff;textShadow=1;" vertex="1" parent="1">
                    <mxGeometry x="660" y="1170" width="180" height="60" as="geometry"/>
                </mxCell>
                <mxCell id="145" value="selectShoe(i, shoeSize, shoePrice)" style="shape=process;whiteSpace=wrap;html=1;backgroundOutline=1;strokeWidth=2;shadow=1;fillColor=#0050ef;strokeColor=#001DBC;fontColor=#ffffff;textShadow=1;" vertex="1" parent="1">
                    <mxGeometry x="430" y="1170" width="180" height="60" as="geometry"/>
                </mxCell>
                <mxCell id="146" value="" style="edgeStyle=none;html=1;strokeWidth=2;shadow=1;entryX=1;entryY=1;entryDx=0;entryDy=0;exitX=0;exitY=0.5;exitDx=0;exitDy=0;rounded=0;curved=0;textShadow=1;" edge="1" parent="1" source="145" target="136">
                    <mxGeometry relative="1" as="geometry">
                        <mxPoint x="428" y="1430" as="sourcePoint"/>
                        <mxPoint x="346.5" y="1112.5" as="targetPoint"/>
                        <Array as="points">
                            <mxPoint x="348" y="1200"/>
                        </Array>
                    </mxGeometry>
                </mxCell>
                <mxCell id="149" value="totalGearPrice = calculateTotalGearPrice (driverCount, helmetPrice, suitPrice, shoePrice, gearPrice)" style="whiteSpace=wrap;html=1;fillColor=#fa6800;fontColor=#FFFFFF;strokeColor=#C73500;strokeWidth=2;textShadow=1;" vertex="1" parent="1">
                    <mxGeometry x="200" y="1290" width="240" height="80" as="geometry"/>
                </mxCell>
                <mxCell id="150" value="" style="endArrow=classic;html=1;exitX=0.5;exitY=1;exitDx=0;exitDy=0;entryX=0.5;entryY=0;entryDx=0;entryDy=0;strokeWidth=2;textShadow=1;" edge="1" parent="1" source="136" target="149">
                    <mxGeometry relative="1" as="geometry">
                        <mxPoint x="300" y="1290" as="sourcePoint"/>
                        <mxPoint x="400" y="1290" as="targetPoint"/>
                    </mxGeometry>
                </mxCell>
                <mxCell id="151" value="False" style="edgeLabel;resizable=0;html=1;;align=center;verticalAlign=middle;textShadow=1;" connectable="0" vertex="1" parent="150">
                    <mxGeometry relative="1" as="geometry"/>
                </mxCell>
                <mxCell id="152" value="" style="endArrow=classic;html=1;exitX=1;exitY=0.5;exitDx=0;exitDy=0;entryX=0;entryY=0.5;entryDx=0;entryDy=0;strokeWidth=2;textShadow=1;" edge="1" parent="1" source="136" target="138">
                    <mxGeometry relative="1" as="geometry">
                        <mxPoint x="390" y="1120" as="sourcePoint"/>
                        <mxPoint x="490" y="1120" as="targetPoint"/>
                    </mxGeometry>
                </mxCell>
                <mxCell id="153" value="True" style="edgeLabel;resizable=0;html=1;;align=center;verticalAlign=middle;textShadow=1;" connectable="0" vertex="1" parent="152">
                    <mxGeometry relative="1" as="geometry">
                        <mxPoint x="-3" as="offset"/>
                    </mxGeometry>
                </mxCell>
                <mxCell id="155" value="" style="edgeStyle=none;html=1;strokeWidth=2;shadow=1;entryX=0.5;entryY=0;entryDx=0;entryDy=0;textShadow=1;" edge="1" parent="1">
                    <mxGeometry relative="1" as="geometry">
                        <mxPoint x="319.66" y="1370" as="sourcePoint"/>
                        <mxPoint x="320" y="1420" as="targetPoint"/>
                    </mxGeometry>
                </mxCell>
                <mxCell id="156" value="totalPrice = calculatePrice (engineCapacity, laps, driverCount, totalGearPrice, membershipDiscount)" style="whiteSpace=wrap;html=1;fillColor=#fa6800;fontColor=#FFFFFF;strokeColor=#C73500;strokeWidth=2;textShadow=1;" vertex="1" parent="1">
                    <mxGeometry x="200" y="1420" width="240" height="80" as="geometry"/>
                </mxCell>
                <mxCell id="157" value="" style="edgeStyle=none;html=1;strokeWidth=2;shadow=1;entryX=0.5;entryY=0;entryDx=0;entryDy=0;textShadow=1;" edge="1" parent="1">
                    <mxGeometry relative="1" as="geometry">
                        <mxPoint x="319.58000000000004" y="1500" as="sourcePoint"/>
                        <mxPoint x="319.92" y="1550" as="targetPoint"/>
                    </mxGeometry>
                </mxCell>
                <mxCell id="158" value="Output:&lt;br&gt;&quot;Race Format&quot; &amp;amp; raceFormat" style="shape=parallelogram;perimeter=parallelogramPerimeter;whiteSpace=wrap;html=1;fixedSize=1;fillColor=#008a00;fontColor=#ffffff;strokeColor=#005700;textShadow=1;" vertex="1" parent="1">
                    <mxGeometry x="220" y="1550" width="200" height="60" as="geometry"/>
                </mxCell>
                <mxCell id="160" value="" style="edgeStyle=none;html=1;strokeWidth=2;shadow=1;entryX=0.5;entryY=0;entryDx=0;entryDy=0;textShadow=1;" edge="1" parent="1">
                    <mxGeometry relative="1" as="geometry">
                        <mxPoint x="319.58000000000004" y="1610" as="sourcePoint"/>
                        <mxPoint x="319.92" y="1660" as="targetPoint"/>
                    </mxGeometry>
                </mxCell>
                <mxCell id="161" value="Output:&lt;br&gt;&quot;Track&quot; &amp;amp; track" style="shape=parallelogram;perimeter=parallelogramPerimeter;whiteSpace=wrap;html=1;fixedSize=1;fillColor=#008a00;fontColor=#ffffff;strokeColor=#005700;textShadow=1;" vertex="1" parent="1">
                    <mxGeometry x="220" y="1660" width="200" height="60" as="geometry"/>
                </mxCell>
                <mxCell id="162" value="i =0,&lt;br&gt;i &amp;lt; driverCount,&lt;br&gt;i++" style="rhombus;whiteSpace=wrap;html=1;fillColor=#6a00ff;fontColor=#ffffff;strokeColor=#3700CC;textShadow=1;" vertex="1" parent="1">
                    <mxGeometry x="265" y="1770" width="110" height="110" as="geometry"/>
                </mxCell>
                <mxCell id="163" value="" style="edgeStyle=none;html=1;strokeWidth=2;shadow=1;entryX=0.5;entryY=0;entryDx=0;entryDy=0;textShadow=1;" edge="1" parent="1">
                    <mxGeometry relative="1" as="geometry">
                        <mxPoint x="319.57000000000005" y="1720" as="sourcePoint"/>
                        <mxPoint x="319.91" y="1770" as="targetPoint"/>
                    </mxGeometry>
                </mxCell>
                <mxCell id="164" value="" style="endArrow=classic;html=1;exitX=1;exitY=0.5;exitDx=0;exitDy=0;entryX=0;entryY=0.5;entryDx=0;entryDy=0;strokeWidth=2;textShadow=1;" edge="1" parent="1">
                    <mxGeometry relative="1" as="geometry">
                        <mxPoint x="375" y="1824.5700000000002" as="sourcePoint"/>
                        <mxPoint x="430" y="1824.5700000000002" as="targetPoint"/>
                    </mxGeometry>
                </mxCell>
                <mxCell id="165" value="True" style="edgeLabel;resizable=0;html=1;;align=center;verticalAlign=middle;textShadow=1;" connectable="0" vertex="1" parent="164">
                    <mxGeometry relative="1" as="geometry">
                        <mxPoint x="-3" as="offset"/>
                    </mxGeometry>
                </mxCell>
                <mxCell id="166" value="Output:&lt;br&gt;&quot;Driver: &quot; &amp;amp; driverName[i]" style="shape=parallelogram;perimeter=parallelogramPerimeter;whiteSpace=wrap;html=1;fixedSize=1;fillColor=#008a00;fontColor=#ffffff;strokeColor=#005700;textShadow=1;" vertex="1" parent="1">
                    <mxGeometry x="420" y="1795" width="200" height="60" as="geometry"/>
                </mxCell>
                <mxCell id="170" value="" style="edgeStyle=none;html=1;strokeWidth=2;shadow=1;entryX=0.5;entryY=0;entryDx=0;entryDy=0;textShadow=1;" edge="1" parent="1" target="171">
                    <mxGeometry relative="1" as="geometry">
                        <mxPoint x="1199.64" y="1855" as="sourcePoint"/>
                        <mxPoint x="1199.98" y="1905" as="targetPoint"/>
                    </mxGeometry>
                </mxCell>
                <mxCell id="192" value="" style="edgeStyle=none;html=1;textShadow=1;strokeWidth=2;" edge="1" parent="1" source="171" target="184">
                    <mxGeometry relative="1" as="geometry"/>
                </mxCell>
                <mxCell id="171" value="Output:&lt;br&gt;&quot;Helmet Size: &quot; &amp;amp; helmetPrice[i]" style="shape=parallelogram;perimeter=parallelogramPerimeter;whiteSpace=wrap;html=1;fixedSize=1;fillColor=#008a00;fontColor=#ffffff;strokeColor=#005700;textShadow=1;" vertex="1" parent="1">
                    <mxGeometry x="1100" y="1910" width="200" height="60" as="geometry"/>
                </mxCell>
                <mxCell id="172" value="" style="edgeStyle=none;html=1;strokeWidth=2;shadow=1;textShadow=1;" edge="1" parent="1">
                    <mxGeometry relative="1" as="geometry">
                        <mxPoint x="610" y="1084.83" as="sourcePoint"/>
                        <mxPoint x="660" y="1084.83" as="targetPoint"/>
                    </mxGeometry>
                </mxCell>
                <mxCell id="173" value="selectHelmet(i, helmetSize, helmetPrice)" style="shape=process;whiteSpace=wrap;html=1;backgroundOutline=1;strokeWidth=2;shadow=1;fillColor=#0050ef;strokeColor=#001DBC;fontColor=#ffffff;textShadow=1;" vertex="1" parent="1">
                    <mxGeometry x="660" y="1055" width="180" height="60" as="geometry"/>
                </mxCell>
                <mxCell id="174" value="" style="edgeStyle=none;html=1;strokeWidth=2;shadow=1;entryX=0.5;entryY=0;entryDx=0;entryDy=0;textShadow=1;" edge="1" parent="1" target="143">
                    <mxGeometry relative="1" as="geometry">
                        <mxPoint x="749.7" y="1115" as="sourcePoint"/>
                        <mxPoint x="750.04" y="1165" as="targetPoint"/>
                    </mxGeometry>
                </mxCell>
                <mxCell id="176" value="" style="edgeStyle=none;html=1;strokeWidth=2;shadow=1;entryX=1;entryY=0.5;entryDx=0;entryDy=0;exitX=0;exitY=0.5;exitDx=0;exitDy=0;textShadow=1;" edge="1" parent="1" source="143" target="145">
                    <mxGeometry relative="1" as="geometry">
                        <mxPoint x="620" y="1094.83" as="sourcePoint"/>
                        <mxPoint x="670" y="1094.83" as="targetPoint"/>
                    </mxGeometry>
                </mxCell>
                <mxCell id="178" value="" style="edgeStyle=none;html=1;strokeWidth=2;shadow=1;textShadow=1;" edge="1" parent="1">
                    <mxGeometry relative="1" as="geometry">
                        <mxPoint x="610" y="1824.82" as="sourcePoint"/>
                        <mxPoint x="660" y="1824.82" as="targetPoint"/>
                    </mxGeometry>
                </mxCell>
                <mxCell id="179" value="Output:&lt;br&gt;&quot;Age: &quot; &amp;amp; driverAge[i]" style="shape=parallelogram;perimeter=parallelogramPerimeter;whiteSpace=wrap;html=1;fixedSize=1;fillColor=#008a00;fontColor=#ffffff;strokeColor=#005700;textShadow=1;" vertex="1" parent="1">
                    <mxGeometry x="650" y="1795" width="200" height="60" as="geometry"/>
                </mxCell>
                <mxCell id="180" value="" style="edgeStyle=none;html=1;strokeWidth=2;shadow=1;textShadow=1;" edge="1" parent="1">
                    <mxGeometry relative="1" as="geometry">
                        <mxPoint x="840" y="1824.82" as="sourcePoint"/>
                        <mxPoint x="890" y="1824.82" as="targetPoint"/>
                    </mxGeometry>
                </mxCell>
                <mxCell id="181" value="&lt;span style=&quot;color: rgb(255, 255, 255);&quot;&gt;Output:&lt;/span&gt;&lt;br&gt;&lt;span style=&quot;color: rgb(255, 255, 255);&quot;&gt;&quot;Has License: &quot; &amp;amp; license[i]&lt;/span&gt;" style="shape=parallelogram;perimeter=parallelogramPerimeter;whiteSpace=wrap;html=1;fixedSize=1;fillColor=#008a00;fontColor=#ffffff;strokeColor=#005700;textShadow=1;" vertex="1" parent="1">
                    <mxGeometry x="880" y="1795" width="200" height="60" as="geometry"/>
                </mxCell>
                <mxCell id="182" value="" style="edgeStyle=none;html=1;strokeWidth=2;shadow=1;textShadow=1;" edge="1" parent="1">
                    <mxGeometry relative="1" as="geometry">
                        <mxPoint x="1070" y="1824.82" as="sourcePoint"/>
                        <mxPoint x="1120" y="1824.82" as="targetPoint"/>
                    </mxGeometry>
                </mxCell>
                <mxCell id="183" value="&lt;span style=&quot;color: rgb(255, 255, 255);&quot;&gt;Output:&lt;/span&gt;&lt;br&gt;&lt;span style=&quot;color: rgb(255, 255, 255);&quot;&gt;&quot;Engine Capactiy: &quot; &amp;amp; engineCapacity[i]&lt;/span&gt;" style="shape=parallelogram;perimeter=parallelogramPerimeter;whiteSpace=wrap;html=1;fixedSize=1;fillColor=#008a00;fontColor=#ffffff;strokeColor=#005700;textShadow=1;" vertex="1" parent="1">
                    <mxGeometry x="1110" y="1795" width="200" height="60" as="geometry"/>
                </mxCell>
                <mxCell id="193" value="" style="edgeStyle=none;html=1;textShadow=1;strokeWidth=2;" edge="1" parent="1" source="184" target="185">
                    <mxGeometry relative="1" as="geometry"/>
                </mxCell>
                <mxCell id="184" value="&lt;span style=&quot;color: rgb(255, 255, 255);&quot;&gt;Output:&lt;/span&gt;&lt;br&gt;&lt;span style=&quot;color: rgb(255, 255, 255);&quot;&gt;&quot;Has License: &quot; &amp;amp; license[i]&lt;/span&gt;" style="shape=parallelogram;perimeter=parallelogramPerimeter;whiteSpace=wrap;html=1;fixedSize=1;fillColor=#008a00;fontColor=#ffffff;strokeColor=#005700;textShadow=1;" vertex="1" parent="1">
                    <mxGeometry x="880" y="1910" width="200" height="60" as="geometry"/>
                </mxCell>
                <mxCell id="194" value="" style="edgeStyle=none;html=1;textShadow=1;strokeWidth=2;" edge="1" parent="1" source="185" target="186">
                    <mxGeometry relative="1" as="geometry"/>
                </mxCell>
                <mxCell id="185" value="&lt;span style=&quot;color: rgb(255, 255, 255);&quot;&gt;Output:&lt;/span&gt;&lt;br&gt;&lt;span style=&quot;color: rgb(255, 255, 255);&quot;&gt;&quot;Has License: &quot; &amp;amp; license[i]&lt;/span&gt;" style="shape=parallelogram;perimeter=parallelogramPerimeter;whiteSpace=wrap;html=1;fixedSize=1;fillColor=#008a00;fontColor=#ffffff;strokeColor=#005700;textShadow=1;" vertex="1" parent="1">
                    <mxGeometry x="650" y="1910" width="200" height="60" as="geometry"/>
                </mxCell>
                <mxCell id="196" value="" style="edgeStyle=none;html=1;entryX=0.5;entryY=0;entryDx=0;entryDy=0;strokeWidth=2;textShadow=1;rounded=0;curved=0;" edge="1" parent="1" source="186" target="187">
                    <mxGeometry relative="1" as="geometry">
                        <mxPoint x="520.0000000000002" y="2050" as="targetPoint"/>
                        <Array as="points">
                            <mxPoint x="520" y="2000"/>
                            <mxPoint x="1200" y="2000"/>
                        </Array>
                    </mxGeometry>
                </mxCell>
                <mxCell id="186" value="&lt;span style=&quot;color: rgb(255, 255, 255);&quot;&gt;Output:&lt;/span&gt;&lt;br&gt;&lt;span style=&quot;color: rgb(255, 255, 255);&quot;&gt;&quot;Has License: &quot; &amp;amp; license[i]&lt;/span&gt;" style="shape=parallelogram;perimeter=parallelogramPerimeter;whiteSpace=wrap;html=1;fixedSize=1;fillColor=#008a00;fontColor=#ffffff;strokeColor=#005700;textShadow=1;" vertex="1" parent="1">
                    <mxGeometry x="420" y="1910" width="200" height="60" as="geometry"/>
                </mxCell>
                <mxCell id="197" value="" style="edgeStyle=none;html=1;textShadow=1;strokeWidth=2;" edge="1" parent="1" source="187" target="188">
                    <mxGeometry relative="1" as="geometry"/>
                </mxCell>
                <mxCell id="187" value="&lt;span style=&quot;color: rgb(255, 255, 255);&quot;&gt;Output:&lt;/span&gt;&lt;br&gt;&lt;span style=&quot;color: rgb(255, 255, 255);&quot;&gt;&quot;Has License: &quot; &amp;amp; license[i]&lt;/span&gt;" style="shape=parallelogram;perimeter=parallelogramPerimeter;whiteSpace=wrap;html=1;fixedSize=1;fillColor=#008a00;fontColor=#ffffff;strokeColor=#005700;textShadow=1;" vertex="1" parent="1">
                    <mxGeometry x="1100" y="2030" width="200" height="60" as="geometry"/>
                </mxCell>
                <mxCell id="198" value="" style="edgeStyle=none;html=1;textShadow=1;strokeWidth=2;" edge="1" parent="1" source="188" target="189">
                    <mxGeometry relative="1" as="geometry"/>
                </mxCell>
                <mxCell id="188" value="&lt;span style=&quot;color: rgb(255, 255, 255);&quot;&gt;Output:&lt;/span&gt;&lt;br&gt;&lt;span style=&quot;color: rgb(255, 255, 255);&quot;&gt;&quot;Has License: &quot; &amp;amp; license[i]&lt;/span&gt;" style="shape=parallelogram;perimeter=parallelogramPerimeter;whiteSpace=wrap;html=1;fixedSize=1;fillColor=#008a00;fontColor=#ffffff;strokeColor=#005700;textShadow=1;" vertex="1" parent="1">
                    <mxGeometry x="880" y="2030" width="200" height="60" as="geometry"/>
                </mxCell>
                <mxCell id="189" value="&lt;span style=&quot;color: rgb(255, 255, 255);&quot;&gt;Output:&lt;/span&gt;&lt;br&gt;&lt;span style=&quot;color: rgb(255, 255, 255);&quot;&gt;&quot;Has License: &quot; &amp;amp; license[i]&lt;/span&gt;" style="shape=parallelogram;perimeter=parallelogramPerimeter;whiteSpace=wrap;html=1;fixedSize=1;fillColor=#008a00;fontColor=#ffffff;strokeColor=#005700;textShadow=1;" vertex="1" parent="1">
                    <mxGeometry x="650" y="2030" width="200" height="60" as="geometry"/>
                </mxCell>
                <mxCell id="190" value="" style="edgeStyle=none;html=1;strokeWidth=2;shadow=1;exitX=0;exitY=0.5;exitDx=0;exitDy=0;entryX=0.775;entryY=0.728;entryDx=0;entryDy=0;textShadow=1;rounded=0;curved=0;entryPerimeter=0;" edge="1" parent="1" source="189" target="162">
                    <mxGeometry relative="1" as="geometry">
                        <mxPoint x="669" y="2057.5" as="sourcePoint"/>
                        <mxPoint x="356.5" y="1850" as="targetPoint"/>
                        <Array as="points">
                            <mxPoint x="350" y="2060"/>
                        </Array>
                    </mxGeometry>
                </mxCell>
                <mxCell id="201" value="&lt;span style=&quot;color: rgb(255, 255, 255);&quot;&gt;Output:&lt;/span&gt;&lt;br&gt;&lt;span style=&quot;color: rgb(255, 255, 255);&quot;&gt;&quot;Has License: &quot; &amp;amp; license[i]&lt;/span&gt;" style="shape=parallelogram;perimeter=parallelogramPerimeter;whiteSpace=wrap;html=1;fixedSize=1;fillColor=#008a00;fontColor=#ffffff;strokeColor=#005700;textShadow=1;" vertex="1" parent="1">
                    <mxGeometry x="220" y="2140" width="200" height="60" as="geometry"/>
                </mxCell>
                <mxCell id="202" value="" style="endArrow=classic;html=1;exitX=0.5;exitY=1;exitDx=0;exitDy=0;entryX=0.5;entryY=0;entryDx=0;entryDy=0;strokeWidth=2;" edge="1" parent="1" source="162" target="201">
                    <mxGeometry relative="1" as="geometry">
                        <mxPoint x="370" y="1970" as="sourcePoint"/>
                        <mxPoint x="470" y="1970" as="targetPoint"/>
                    </mxGeometry>
                </mxCell>
                <mxCell id="203" value="False" style="edgeLabel;resizable=0;html=1;;align=center;verticalAlign=middle;" connectable="0" vertex="1" parent="202">
                    <mxGeometry relative="1" as="geometry"/>
                </mxCell>
                <mxCell id="204" value="" style="edgeStyle=none;html=1;strokeWidth=2;shadow=1;entryX=0.5;entryY=0;entryDx=0;entryDy=0;textShadow=1;" edge="1" parent="1">
                    <mxGeometry relative="1" as="geometry">
                        <mxPoint x="319.58000000000004" y="2200" as="sourcePoint"/>
                        <mxPoint x="319.92" y="2250" as="targetPoint"/>
                    </mxGeometry>
                </mxCell>
                <mxCell id="205" value="Output:&lt;br&gt;&quot;Track&quot; &amp;amp; track" style="shape=parallelogram;perimeter=parallelogramPerimeter;whiteSpace=wrap;html=1;fixedSize=1;fillColor=#008a00;fontColor=#ffffff;strokeColor=#005700;textShadow=1;" vertex="1" parent="1">
                    <mxGeometry x="220" y="2250" width="200" height="60" as="geometry"/>
                </mxCell>
                <mxCell id="206" value="" style="edgeStyle=none;html=1;strokeWidth=2;shadow=1;entryX=0.5;entryY=0;entryDx=0;entryDy=0;textShadow=1;" edge="1" parent="1">
                    <mxGeometry relative="1" as="geometry">
                        <mxPoint x="319.58000000000004" y="2310" as="sourcePoint"/>
                        <mxPoint x="319.92" y="2360" as="targetPoint"/>
                    </mxGeometry>
                </mxCell>
                <mxCell id="207" value="Output:&lt;br&gt;&quot;Track&quot; &amp;amp; track" style="shape=parallelogram;perimeter=parallelogramPerimeter;whiteSpace=wrap;html=1;fixedSize=1;fillColor=#008a00;fontColor=#ffffff;strokeColor=#005700;textShadow=1;" vertex="1" parent="1">
                    <mxGeometry x="220" y="2360" width="200" height="60" as="geometry"/>
                </mxCell>
                <mxCell id="208" value="totalIncome += totalPrice" style="whiteSpace=wrap;html=1;fillColor=#fa6800;fontColor=#FFFFFF;strokeColor=#C73500;strokeWidth=2;textShadow=1;" vertex="1" parent="1">
                    <mxGeometry x="230" y="2470" width="180" height="60" as="geometry"/>
                </mxCell>
                <mxCell id="209" value="" style="edgeStyle=none;html=1;strokeWidth=2;shadow=1;entryX=0.5;entryY=0;entryDx=0;entryDy=0;textShadow=1;" edge="1" parent="1">
                    <mxGeometry relative="1" as="geometry">
                        <mxPoint x="319.58000000000004" y="2420" as="sourcePoint"/>
                        <mxPoint x="319.92" y="2470" as="targetPoint"/>
                    </mxGeometry>
                </mxCell>
                <mxCell id="210" value="customer++" style="whiteSpace=wrap;html=1;fillColor=#fa6800;fontColor=#FFFFFF;strokeColor=#C73500;strokeWidth=2;textShadow=1;" vertex="1" parent="1">
                    <mxGeometry x="230" y="2580" width="180" height="60" as="geometry"/>
                </mxCell>
                <mxCell id="211" value="" style="edgeStyle=none;html=1;strokeWidth=2;shadow=1;entryX=0.5;entryY=0;entryDx=0;entryDy=0;textShadow=1;" edge="1" parent="1">
                    <mxGeometry relative="1" as="geometry">
                        <mxPoint x="319.58000000000004" y="2530" as="sourcePoint"/>
                        <mxPoint x="319.92" y="2580" as="targetPoint"/>
                    </mxGeometry>
                </mxCell>
                <mxCell id="212" value="" style="edgeStyle=none;html=1;strokeWidth=2;shadow=1;entryX=0.5;entryY=0;entryDx=0;entryDy=0;textShadow=1;" edge="1" parent="1">
                    <mxGeometry relative="1" as="geometry">
                        <mxPoint x="319.63000000000005" y="2640" as="sourcePoint"/>
                        <mxPoint x="319.97" y="2690" as="targetPoint"/>
                    </mxGeometry>
                </mxCell>
                <mxCell id="215" value="Prompt:&lt;br&gt;&quot;Cotinue for another customer?&lt;br&gt;(Y/N): &quot;" style="shape=parallelogram;perimeter=parallelogramPerimeter;whiteSpace=wrap;html=1;fixedSize=1;fillColor=#008a00;fontColor=#ffffff;strokeColor=#005700;textShadow=1;" vertex="1" parent="1">
                    <mxGeometry x="220" y="2690" width="200" height="60" as="geometry"/>
                </mxCell>
                <mxCell id="216" value="" style="edgeStyle=none;html=1;strokeWidth=2;shadow=1;entryX=0.5;entryY=0;entryDx=0;entryDy=0;textShadow=1;" edge="1" parent="1">
                    <mxGeometry relative="1" as="geometry">
                        <mxPoint x="319.63000000000005" y="2750" as="sourcePoint"/>
                        <mxPoint x="319.97" y="2800" as="targetPoint"/>
                    </mxGeometry>
                </mxCell>
                <mxCell id="217" value="Input:&lt;br&gt;continueChoice =&lt;br&gt;getvalidCharacterInput()" style="shape=parallelogram;perimeter=parallelogramPerimeter;whiteSpace=wrap;html=1;fixedSize=1;fillColor=#e3c800;fontColor=#FFFFFF;strokeColor=#B09500;textShadow=1;" vertex="1" parent="1">
                    <mxGeometry x="220" y="2800" width="200" height="60" as="geometry"/>
                </mxCell>
                <mxCell id="218" value="" style="edgeStyle=none;html=1;strokeWidth=2;shadow=1;entryX=0.5;entryY=0;entryDx=0;entryDy=0;textShadow=1;" edge="1" parent="1">
                    <mxGeometry relative="1" as="geometry">
                        <mxPoint x="319.76000000000005" y="2860" as="sourcePoint"/>
                        <mxPoint x="320.1" y="2910" as="targetPoint"/>
                    </mxGeometry>
                </mxCell>
                <mxCell id="219" value="" style="edgeStyle=none;html=1;strokeWidth=2;shadow=1;entryX=0.5;entryY=0;entryDx=0;entryDy=0;textShadow=1;" edge="1" parent="1">
                    <mxGeometry relative="1" as="geometry">
                        <mxPoint x="319.63000000000005" y="3100" as="sourcePoint"/>
                        <mxPoint x="319.97" y="3150" as="targetPoint"/>
                    </mxGeometry>
                </mxCell>
                <mxCell id="220" value="Output:&lt;br&gt;&quot;Total Income: RM&quot; &amp;amp; totalIncome" style="shape=parallelogram;perimeter=parallelogramPerimeter;whiteSpace=wrap;html=1;fixedSize=1;fillColor=#008a00;fontColor=#ffffff;strokeColor=#005700;textShadow=1;" vertex="1" parent="1">
                    <mxGeometry x="215" y="3150" width="210" height="60" as="geometry"/>
                </mxCell>
                <mxCell id="221" value="End" style="strokeWidth=2;html=1;shape=mxgraph.flowchart.terminator;whiteSpace=wrap;fillColor=#d80073;strokeColor=#A50040;shadow=1;fontColor=#ffffff;textShadow=1;" vertex="1" parent="1">
                    <mxGeometry x="270" y="3260" width="100" height="60" as="geometry"/>
                </mxCell>
                <mxCell id="222" value="" style="edgeStyle=none;html=1;strokeWidth=2;shadow=1;entryX=0.5;entryY=0;entryDx=0;entryDy=0;textShadow=1;" edge="1" parent="1">
                    <mxGeometry relative="1" as="geometry">
                        <mxPoint x="319.6" y="3210" as="sourcePoint"/>
                        <mxPoint x="319.94" y="3260" as="targetPoint"/>
                    </mxGeometry>
                </mxCell>
            </root>
        </mxGraphModel>
    </diagram>
</mxfile>